<svg id="Layer_3" enable-background="new 0 0 64 64" height="512" viewBox="0 0 64 64" width="512" xmlns="http://www.w3.org/2000/svg"><g><circle cx="32" cy="32" fill="#3d98f7" r="26"/><g><path d="m56.706 28.152c-1.669-10.807-10.051-19.189-20.859-20.858l.306-1.977c11.673 1.803 20.727 10.856 22.53 22.53z" fill="#2b74ca"/></g><g><path d="m36.153 58.683-.306-1.977c10.808-1.669 19.19-10.051 20.859-20.858l1.977.305c-1.803 11.673-10.857 20.727-22.53 22.53z" fill="#2b74ca"/></g><g><path d="m27.847 58.683c-11.673-1.803-20.727-10.857-22.53-22.531l1.977-.305c1.669 10.808 10.051 19.189 20.859 20.858z" fill="#2b74ca"/></g><g><path d="m7.294 28.152-1.977-.305c1.803-11.673 10.857-20.727 22.53-22.53l.306 1.977c-10.808 1.669-19.19 10.051-20.859 20.858z" fill="#2b74ca"/></g><g><path d="m23.148 17.311-1.901-.621c1.509-4.622 3.635-8.081 6.146-10.004l1.216 1.588c-2.158 1.651-4.097 4.861-5.461 9.037z" fill="#2b74ca"/></g><g><path d="m27.392 57.314c-2.511-1.923-4.636-5.382-6.146-10.004l1.901-.621c1.364 4.176 3.303 7.386 5.46 9.037z" fill="#2b74ca"/></g><g><path d="m36.608 57.314-1.216-1.588c2.157-1.651 4.096-4.861 5.46-9.037l1.901.621c-1.509 4.623-3.634 8.082-6.145 10.004z" fill="#2b74ca"/></g><g><path d="m40.852 17.311c-1.504-4.606-3.661-7.966-6.072-9.461l1.054-1.699c2.812 1.742 5.269 5.485 6.919 10.539z" fill="#2b74ca"/></g><g><path d="m55.727 28.608c-1.652-2.157-4.861-4.097-9.037-5.461l.621-1.9c4.622 1.51 8.081 3.635 10.004 6.145z" fill="#2b74ca"/></g><g><path d="m8.273 28.608-1.588-1.217c1.923-2.51 5.382-4.635 10.004-6.145l.621 1.9c-4.175 1.366-7.385 3.305-9.037 5.462z" fill="#2b74ca"/></g><g><path d="m16.689 42.753c-4.622-1.51-8.081-3.635-10.003-6.145l1.588-1.217c1.652 2.157 4.861 4.097 9.037 5.461z" fill="#2b74ca"/></g><g><path d="m47.311 42.753-.621-1.9c4.176-1.364 7.385-3.304 9.037-5.461l1.588 1.217c-1.923 2.509-5.382 4.634-10.004 6.144z" fill="#2b74ca"/></g><g fill="#f5b953"><circle cx="32" cy="6" r="4"/><circle cx="32" cy="58" r="4"/><circle cx="6" cy="32" r="4"/><circle cx="58" cy="32" r="4"/></g><g><path d="m32 11c-2.757 0-5-2.243-5-5s2.243-5 5-5 5 2.243 5 5-2.243 5-5 5zm0-8c-1.654 0-3 1.346-3 3s1.346 3 3 3 3-1.346 3-3-1.346-3-3-3z" fill="#f9d18b"/></g><g><path d="m32 63c-2.757 0-5-2.243-5-5s2.243-5 5-5 5 2.243 5 5-2.243 5-5 5zm0-8c-1.654 0-3 1.346-3 3s1.346 3 3 3 3-1.346 3-3-1.346-3-3-3z" fill="#f9d18b"/></g><g><path d="m6 37c-2.757 0-5-2.243-5-5s2.243-5 5-5 5 2.243 5 5-2.243 5-5 5zm0-8c-1.654 0-3 1.346-3 3s1.346 3 3 3 3-1.346 3-3-1.346-3-3-3z" fill="#f9d18b"/></g><g><path d="m58 37c-2.757 0-5-2.243-5-5s2.243-5 5-5 5 2.243 5 5-2.243 5-5 5zm0-8c-1.654 0-3 1.346-3 3s1.346 3 3 3 3-1.346 3-3-1.346-3-3-3z" fill="#f9d18b"/></g><path d="m19 35h26v5h-26z" fill="#f9d18b"/><path d="m19 24h26v5h-26z" fill="#f9d18b"/><path d="m46 39h-28c-.552 0-1 .448-1 1v6c0 .552.448 1 1 1h28c.552 0 1-.448 1-1v-6c0-.552-.448-1-1-1z" fill="#f5b953"/><path d="m46 28h-28c-.552 0-1 .448-1 1v6c0 .552.448 1 1 1h28c.552 0 1-.448 1-1v-6c0-.552-.448-1-1-1z" fill="#f5b953"/><path d="m46 17h-28c-.552 0-1 .448-1 1v6c0 .552.448 1 1 1h28c.552 0 1-.448 1-1v-6c0-.552-.448-1-1-1z" fill="#f5b953"/><g><path d="m19 41h2v4h-2z" fill="#fff"/></g><g><path d="m22 41h2v4h-2z" fill="#fff"/></g><g><path d="m25 41h2v4h-2z" fill="#fff"/></g><g><path d="m42 41h2v2h-2z" fill="#fff"/></g><g><path d="m39 41h2v2h-2z" fill="#fff"/></g><g><path d="m19 30h2v4h-2z" fill="#fff"/></g><g><path d="m22 30h2v4h-2z" fill="#fff"/></g><g><path d="m25 30h2v4h-2z" fill="#fff"/></g><g><path d="m42 30h2v2h-2z" fill="#fff"/></g><g><path d="m39 30h2v2h-2z" fill="#fff"/></g><g><path d="m19 19h2v4h-2z" fill="#fff"/></g><g><path d="m22 19h2v4h-2z" fill="#fff"/></g><g><path d="m25 19h2v4h-2z" fill="#fff"/></g><g><path d="m42 19h2v2h-2z" fill="#fff"/></g><g><path d="m39 19h2v2h-2z" fill="#fff"/></g></g></svg>