<?xml version="1.0" encoding="iso-8859-1"?>
<!-- Generator: Adobe Illustrator 19.0.0, SVG Export Plug-In . SVG Version: 6.00 Build 0)  -->
<svg version="1.1" id="Layer_1" xmlns="http://www.w3.org/2000/svg" xmlns:xlink="http://www.w3.org/1999/xlink" x="0px" y="0px"
	 viewBox="0 0 512.001 512.001" style="enable-background:new 0 0 512.001 512.001;" xml:space="preserve">
<polyline style="fill:#66686D;" points="48.594,501.481 164.458,10.519 347.542,10.519 463.407,501.481 "/>
<g>
	<polyline style="fill:#EA3D3D;" points="504.483,501.481 365.672,10.519 347.542,10.519 463.407,501.481 	"/>
	<polyline style="fill:#EA3D3D;" points="7.517,501.481 146.329,10.519 164.458,10.519 48.594,501.481 	"/>
</g>
<g>
	<polygon style="fill:#E8EAEF;" points="269.066,47.02 242.935,47.02 244.057,10.518 267.944,10.518 	"/>
	<polygon style="fill:#E8EAEF;" points="271.621,129.982 240.38,129.982 242.353,65.897 269.647,65.897 	"/>
	<polygon style="fill:#E8EAEF;" points="274.617,227.213 237.384,227.213 239.638,154.069 272.362,154.069 	"/>
	<polygon style="fill:#E8EAEF;" points="278.403,350.454 233.597,350.454 236.341,261.209 275.659,261.209 	"/>
	<polygon style="fill:#E8EAEF;" points="283.053,501.48 228.947,501.48 232.274,393.458 279.727,393.458 	"/>
</g>
<path d="M378.55,141.914c4.039-0.953,6.541-5.001,5.588-9.04L354.856,8.793c-0.954-4.04-5.004-6.539-9.04-5.588
	c-4.039,0.953-6.541,5.001-5.588,9.04l29.283,124.081c0.817,3.459,3.902,5.79,7.307,5.79
	C377.39,142.116,377.97,142.051,378.55,141.914z"/>
<path d="M389.845,157.05c-0.954-4.04-5.009-6.54-9.04-5.588c-4.039,0.953-6.541,5.001-5.588,9.04l80.876,342.704
	c0.817,3.459,3.902,5.79,7.307,5.79c0.571,0,1.152-0.065,1.732-0.202c4.039-0.953,6.541-5.001,5.588-9.04L389.845,157.05z"/>
<path d="M61.869,445.229c-4.033-0.951-8.087,1.548-9.04,5.588l-11.549,48.938c-0.953,4.039,1.549,8.087,5.588,9.04
	c0.58,0.137,1.16,0.202,1.732,0.202c3.405,0,6.492-2.332,7.307-5.79l11.549-48.938C68.41,450.23,65.908,446.182,61.869,445.229z"/>
<path d="M166.184,3.205c-4.032-0.953-8.086,1.548-9.04,5.588L60.301,419.154c-0.953,4.039,1.549,8.087,5.588,9.04
	c0.58,0.137,1.16,0.202,1.732,0.202c3.406,0,6.492-2.332,7.308-5.79l96.843-410.361C172.725,8.206,170.223,4.158,166.184,3.205z"/>
<path d="M511.715,499.436L372.903,8.474c-1.129-3.995-5.286-6.315-9.275-5.187c-3.994,1.129-6.316,5.282-5.187,9.276
	l138.812,490.962c0.936,3.31,3.949,5.472,7.227,5.472c0.677,0,1.365-0.092,2.049-0.286
	C510.522,507.583,512.845,503.43,511.715,499.436z"/>
<path d="M148.373,3.288c-3.991-1.128-8.147,1.192-9.275,5.187L0.285,499.437c-1.129,3.994,1.192,8.147,5.186,9.276
	c0.684,0.193,1.372,0.286,2.049,0.286c3.277,0,6.291-2.162,7.227-5.472L153.56,12.565C154.688,8.569,152.366,4.417,148.373,3.288z"
	/>
<path d="M242.935,54.534h26.131c2.033,0,3.98-0.824,5.395-2.283c1.416-1.46,2.179-3.431,2.116-5.463l-1.122-36.502
	c-0.127-4.148-3.564-7.417-7.742-7.28c-4.149,0.127-7.409,3.594-7.28,7.742l0.884,28.755h-10.632l0.884-28.755
	c0.128-4.148-3.131-7.615-7.28-7.742c-4.098-0.127-7.615,3.132-7.742,7.28l-1.122,36.502c-0.063,2.032,0.7,4.003,2.116,5.463
	C238.955,53.71,240.901,54.534,242.935,54.534z"/>
<path d="M240.38,137.497h31.241c2.033,0,3.98-0.824,5.396-2.283c1.415-1.46,2.178-3.431,2.115-5.463l-1.974-64.086
	c-0.124-4.058-3.45-7.283-7.511-7.283h-27.293c-4.061,0-7.386,3.225-7.511,7.283l-1.974,64.086c-0.063,2.032,0.7,4.003,2.115,5.463
	C236.4,136.672,238.347,137.497,240.38,137.497z M249.64,73.411h12.72l1.511,49.056h-15.742L249.64,73.411z"/>
<path d="M237.384,234.727h37.233c2.033,0,3.98-0.824,5.396-2.283c1.415-1.46,2.178-3.431,2.115-5.463l-2.254-73.143
	c-0.124-4.058-3.451-7.283-7.511-7.283h-32.724c-4.06,0-7.386,3.225-7.511,7.283l-2.254,73.143c-0.063,2.032,0.7,4.003,2.115,5.463
	C233.404,233.903,235.35,234.727,237.384,234.727z M246.925,161.584h18.151l1.792,58.114h-21.734L246.925,161.584z"/>
<path d="M233.596,357.969h44.808c2.033,0,3.98-0.824,5.395-2.283c1.416-1.46,2.179-3.431,2.116-5.463l-2.744-89.245
	c-0.124-4.059-3.45-7.284-7.511-7.284h-39.317c-4.061,0-7.386,3.225-7.511,7.283l-2.745,89.245c-0.063,2.032,0.7,4.003,2.116,5.463
	C229.617,357.144,231.563,357.969,233.596,357.969z M243.628,268.724h24.743l2.281,74.215h-29.308L243.628,268.724z"/>
<path d="M279.726,385.944h-47.452c-4.061,0-7.386,3.225-7.511,7.283l-3.327,108.022c-0.128,4.148,3.131,7.615,7.28,7.742
	c4.115,0.126,7.615-3.131,7.742-7.279l3.103-100.738h32.878l3.103,100.738c0.125,4.07,3.463,7.283,7.507,7.283
	c0.078,0,0.156-0.001,0.234-0.004c4.149-0.127,7.409-3.594,7.28-7.742l-3.327-108.022
	C287.112,389.168,283.787,385.944,279.726,385.944z"/>
<g>
</g>
<g>
</g>
<g>
</g>
<g>
</g>
<g>
</g>
<g>
</g>
<g>
</g>
<g>
</g>
<g>
</g>
<g>
</g>
<g>
</g>
<g>
</g>
<g>
</g>
<g>
</g>
<g>
</g>
</svg>
