<svg id="Layer_3" enable-background="new 0 0 64 64" height="512" viewBox="0 0 64 64" width="512" xmlns="http://www.w3.org/2000/svg"><g><path d="m17 17v-5c0-2.209 1.791-4 4-4h22c2.209 0 4 1.791 4 4v5" fill="#8892a0"/><path d="m26.18 8h-5.18c-2.209 0-4 1.791-4 4v5h15.408c-1.349-3.477-3.499-6.553-6.228-9z" fill="#a8b0bc"/><path d="m52 38-10 14h-20l-10-14" fill="#a8b0bc"/><path d="m30.396 38h-18.396l6.782 9.495c4.831-1.821 8.901-5.186 11.614-9.495z" fill="#c1c8d1"/><path d="m52 38h-40v-19c0-1.657 1.343-3 3-3h34c1.657 0 3 1.343 3 3z" fill="#758190"/><path d="m34 25.5c0-3.382-.72-6.594-2.006-9.5h-16.994c-1.657 0-3 1.343-3 3v19h18.396c2.28-3.621 3.604-7.905 3.604-12.5z" fill="#8892a0"/><path d="m51 36h4c1.105 0 2 .895 2 2v20h4v-21c0-2.761-2.239-5-5-5h-5z" fill="#d5cec2"/><g><path d="m6 56.999h-2v-47.999c0-3.86 3.14-7 7-7h20.999v2h-20.999c-2.757 0-5 2.242-5 5z" fill="#d5cec2"/></g><path d="m29 8v-3c0-1.657 1.343-3 3-3 1.657 0 3 1.343 3 3v3" fill="#243242"/><path d="m12 38v24h4l2.067-15.506z" fill="#4d5d7a"/><path d="m22 52v2c0 1.105.895 2 2 2h16c1.105 0 2-.895 2-2v-2z" fill="#758190"/><path d="m36 11v10h-8v-10h-2v51h2v-15h8v15h2v-51zm0 11.999v2h-8v-2zm-8 14.001v-2h8v2zm8 1.999v2h-8v-2zm-8-5.999v-2h8v2zm0-4v-2h8v2zm0 16v-2h8v2z" fill="#e7e4dd"/><path d="m52 38v24h-4l-2.067-15.506z" fill="#4d5d7a"/><path d="m56 58v2.999h-48v-4.999h-6v4.999 2.001h60v-1-1.001-2.999z" fill="#243242"/></g></svg>